<?xml version="1.0" encoding="UTF-8" standalone="no"?><!DOCTYPE svg PUBLIC "-//W3C//DTD SVG 1.1//EN" "http://www.w3.org/Graphics/SVG/1.1/DTD/svg11.dtd"><svg width="100%" height="100%" viewBox="0 0 4000 3000" version="1.1" xmlns="http://www.w3.org/2000/svg" xmlns:xlink="http://www.w3.org/1999/xlink" xml:space="preserve" xmlns:serif="http://www.serif.com/" style="fill-rule:evenodd;clip-rule:evenodd;stroke-linecap:round;stroke-linejoin:round;stroke-miterlimit:1.5;"><path d="M1372.264,1160.917l192.918,-21.718l-236.14,515.083l-181.322,3.163l224.544,-496.527Z"/><path d="M1481.9,926.885l-75.902,156.021l193.972,-20.03l75.826,-171.781l-193.896,35.79Z"/><path d="M2424.276,755.367l-660.191,135.728l-370.287,809.096l606.202,-19.766l200.259,-451.987l-299.129,21.084l-56.663,126.047l122.55,0l-54.028,124.431l-255.643,11.753l220.064,-471.753l457.258,-86.971l89.607,-197.662Z"/><path d="M2514.845,762.798l-85.654,177.896l185.802,-13.177l98.831,-207.181l-198.98,42.463Z"/><path d="M2393.612,1025.029l-303.082,657.556l185.802,-14.495l309.67,-658.873l-192.391,15.813Z"/><path d="M2632.961,1232.968l58.293,0.432l-56.997,202.082c0,0 -25.908,74.269 -100.177,57.429c0,0 -50.52,-15.545 -72.11,-42.316l39.726,-35.408c0,0 63.043,75.133 94.996,-15.113l36.271,-167.106Z"/><path d="M2933.517,1232.968l-196.9,0l-64.482,262.428l201.506,0l14.393,-57.296l-146.812,4.606l16.696,-63.331l126.661,0l4.606,-44.331l-124.934,-0.576l13.818,-58.149l144.509,-0.576l10.939,-42.775Z"/><path d="M2961.084,1232.968l-11.515,46.955l73.694,-2.879l-47.786,208.991l52.967,1.151l55.846,-206.112l77.148,-0.576l12.666,-55.27l-213.021,7.74Z"/><path d="M731.028,1173.765l-104.014,725.287l520.07,-432.923l282.525,-612.84l-310.637,290.958l-88.553,231.923l-196.783,146.182l23.895,-255.818l233.329,-116.664l28.112,-5.622l310.637,-290.958l-698.581,320.476Z"/><path d="M2759.14,891.095c0,0 947.129,-2.809 582.004,485.076c0,0 189.426,-239.483 -205.898,-389.17c-395.323,-149.687 22.275,8.779 22.275,8.779c0,0 742.835,680.704 -1727.912,1046.474c0,0 1163.679,-112.794 1204.858,-184.172c0,0 -717.489,346.594 -1779.469,247.935l-612.494,98.659c-0,0 2244.339,109.144 3093.666,-704.675c0,0 -337.908,562.133 -2419.296,862.744c0,0 1547.555,-202.796 1967.93,-463.692c0,0 -978.013,411.873 -1406.966,463.692c0,0 1707.234,-201.913 2131.897,-986.573c0,0 211.941,-601.577 -850.595,-485.076Z"/><path d="M2563.722,1888.429l54.695,1.839l27.174,-43.755l-81.87,41.916Z" style="stroke:#000;stroke-width:1px;"/><path d="M2491.133,2055.098l212.3,-92.117l207.982,-72.713l-130.979,95.742l-289.304,69.088Z" style="stroke:#000;stroke-width:1px;"/></svg>